# xmcd
#
# Track frame offsets:
#	150
#	10679
#	18899
#	28756
#
# Disc length: 510 seconds
#
# Revision: 0
# Processed by: cddbd v1.5.2PL0 Copyright (c) Steve Scherf et al.
# Submitted via: EZCDAudioConverter 2.0.5.1
#
DISCID=1f01fc04
DTITLE=The Ventures - Memphis
DYEAR=2005
DGENRE=Instrumental
TTITLE0=Memphis
TTITLE1=El Cumbanchero
TTITLE2=Tarentella
TTITLE3=Skip To M' Limbo
EXTD=
EXTT0=
EXTT1=
EXTT2=
EXTT3=
PLAYORDER=
